<svg width="316" height="73" viewBox="0 0 316 73" fill="none" xmlns="http://www.w3.org/2000/svg">
<g clip-path="url(#clip0)">
<path d="M55.4062 1.90625V71H44.1562V39.875H18.0938V32.1875H44.1562V1.90625H55.4062ZM2.8125 1.90625H14.25V71H2.8125V1.90625ZM148.189 71H136.564L118.658 19.25L100.564 71H88.845L113.033 2H124.189L148.189 71ZM124.845 49.0625L127.564 56.6562H109.658L112.283 49.0625H124.845ZM181.253 1.90625H192.503V71H181.253V1.90625ZM228.128 71H216.221L203.19 45.9688C203.003 45.9688 202.784 46 202.534 46.0625C202.346 46.0625 202.034 46.0625 201.596 46.0625C201.159 46.0625 200.503 46.0625 199.628 46.0625C198.815 46.0625 197.721 46.0625 196.346 46.0625V37.8125H202.721C204.096 37.8125 205.471 37.5938 206.846 37.1562C208.221 36.6562 209.471 35.875 210.596 34.8125C211.721 33.75 212.628 32.2812 213.315 30.4062C214.003 28.4688 214.346 26.0938 214.346 23.2812C214.346 22.1562 214.19 20.875 213.878 19.4375C213.565 17.9375 212.909 16.5312 211.909 15.2188C210.971 13.8438 209.628 12.7188 207.878 11.8438C206.128 10.9062 203.815 10.4375 200.94 10.4375H196.346V1.90625H201.128C204.065 1.90625 206.971 2.375 209.846 3.3125C212.721 4.25 215.284 5.65625 217.534 7.53125C219.846 9.40625 221.69 11.6875 223.065 14.375C224.503 17 225.221 19.9688 225.221 23.2812C225.221 28.2812 224.065 32.5312 221.753 36.0312C219.44 39.5312 216.315 42.125 212.378 43.8125L228.128 71ZM272.535 35C272.535 39.8125 272.848 43.9062 273.473 47.2812C274.098 50.5938 275.004 53.3438 276.191 55.5312C277.379 57.6562 278.785 59.25 280.41 60.3125C282.098 61.375 283.973 62 286.035 62.1875V71.4688C282.223 71.2188 278.754 70.3125 275.629 68.75C272.566 67.125 269.973 64.8438 267.848 61.9062C265.723 58.9062 264.066 55.25 262.879 50.9375C261.691 46.625 261.098 41.6875 261.098 36.125V1.90625H272.535V35ZM314.816 1.90625V36.125C314.816 41.6875 314.223 46.625 313.035 50.9375C311.848 55.25 310.16 58.9062 307.973 61.9062C305.848 64.8438 303.254 67.125 300.191 68.75C297.129 70.3125 293.691 71.2188 289.879 71.4688V62.1875C291.941 61.9375 293.785 61.3125 295.41 60.3125C297.098 59.25 298.535 57.6562 299.723 55.5312C300.91 53.4062 301.816 50.6875 302.441 47.375C303.129 44 303.473 39.875 303.473 35V1.90625H314.816Z" fill="black"/>
</g>
<defs>
<clipPath id="clip0">
<rect width="316" height="73" fill="white"/>
</clipPath>
</defs>
</svg>
