<svg width="235" height="69" viewBox="0 0 235 69" fill="none" xmlns="http://www.w3.org/2000/svg">
<g clip-path="url(#clip0)">
<path d="M1.75 67V1.375H6.71875V31.5625H18.1562V36.3438H6.71875V67H1.75ZM22.5625 36.3438V31.5625H34V1.375H38.9688V67H34V36.3438H22.5625ZM64.2513 67L77.0013 11.0312H78.595L80.095 18.1562L69.22 67H64.2513ZM76.1575 54.9062L77.1888 50.125H91.5325L80.845 1.46875H85.8138L100.158 67H95.1888L92.6575 54.9062H76.1575ZM125.534 67V1.375H130.503V67H125.534ZM134.815 37.5625V32.875H148.034C153.909 32.875 157.471 30.4062 158.721 25.4688C159.159 23.7812 159.378 21.8125 159.378 19.5625C159.378 12.25 156.784 7.84375 151.596 6.34375C149.971 5.90625 148.096 5.6875 145.971 5.6875H134.815V1.375H147.846C158.784 2 164.284 8.0625 164.346 19.5625C164.284 27.4375 162.128 32.6562 157.878 35.2188C162.19 37.2188 164.565 41.0312 165.003 46.6562L166.596 67H161.721L160.315 50.3125C159.815 44.75 158.503 41.125 156.378 39.4375C154.628 38.125 152.159 37.5 148.971 37.5625H134.815ZM191.598 48.9062V1.375H196.566V48.9062C196.566 53.9062 199.129 57.8125 204.254 60.625C206.629 61.9375 208.66 62.5938 210.348 62.5938V67.4688C206.785 67.4688 203.16 66.2188 199.473 63.7188C194.285 60.0312 191.66 55.0938 191.598 48.9062ZM214.754 67.4688V62.5938C217.379 62.5938 220.098 61.5625 222.91 59.5C226.598 56.75 228.473 53.2188 228.535 48.9062V1.375H233.504V48.9062C233.504 55.9062 230.348 61.1875 224.035 64.75C220.785 66.5625 217.691 67.4688 214.754 67.4688Z" fill="black"/>
</g>
<defs>
<clipPath id="clip0">
<rect width="235" height="69" fill="white"/>
</clipPath>
</defs>
</svg>
